Coordinates
version=1
nRows=7
nColumns=40
inDegrees=yes

Units are S.I. units (second, meters, Newtons, ...)
Angles are in degrees.

endheader
time	pelvis_tilt	pelvis_list	pelvis_rotation	pelvis_tx	pelvis_ty	pelvis_tz	hip_flexion_r	hip_adduction_r	hip_rotation_r	knee_angle_r	knee_angle_r_beta	ankle_angle_r	subtalar_angle_r	mtp_angle_r	hip_flexion_l	hip_adduction_l	hip_rotation_l	knee_angle_l	knee_angle_l_beta	ankle_angle_l	subtalar_angle_l	mtp_angle_l	lumbar_extension	lumbar_bending	lumbar_rotation	arm_flex_r	arm_add_r	arm_rot_r	elbow_flex_r	pro_sup_r	wrist_flex_r	wrist_dev_r	arm_flex_l	arm_add_l	arm_rot_l	elbow_flex_l	pro_sup_l	wrist_flex_l	wrist_dev_l
     46.60342857	     -3.88132372	     -5.67601370	      8.39193058	      1.06930426	      0.92313746	      0.47265955	      1.20097927	      4.04798180	    -18.48609028	     10.64893084	     10.64893084	     14.81449147	      1.84603664	     -6.18128617	     29.63027688	     -8.94114912	     -2.64417166	     20.38865578	     20.38865578	      4.41628422	     -6.40211721	      6.70803639	     -8.78876918	      5.70050230	      4.11447161	     36.10429308	    -18.54265520	    -10.15401090	     99.58759206	     44.83158103	      0.00000000	      0.00000000	     -6.92821480	     -7.72725591	     -2.51722564	     30.89340274	     45.09311423	      0.00000000	      0.00000000
     46.61685714	     -3.77714805	     -5.66404412	      8.29869201	      1.07043921	      0.92252742	      0.47088126	      0.62790274	      3.96860724	    -18.38093170	     10.71585024	     10.71585024	     15.41134323	      2.07855020	     -5.41640408	     29.08694193	     -8.85111792	     -2.98160985	     20.52863109	     20.52863109	      3.11878829	     -7.02511616	      3.97394671	     -8.57429569	      5.56878599	      3.52111756	     36.73028820	    -17.39149817	     -9.81309684	     94.72576974	     44.99135310	      0.00000000	      0.00000000	     -7.17881702	     -7.96165794	     -3.03110069	     31.68434096	     45.21107286	      0.00000000	      0.00000000
     46.63028571	     -3.72010233	     -5.64085671	      8.17519889	      1.07146528	      0.92196445	      0.46893347	      0.15232609	      3.84328094	    -18.20613643	     10.83275688	     10.83275688	     15.72347850	      2.12896201	     -5.29282878	     28.77847235	     -8.74695639	     -3.11138290	     21.13399993	     21.13399993	      2.83751263	     -7.69043834	      3.52515814	     -8.49464157	      5.44040764	      3.95783925	     35.97613959	    -17.52124005	     -9.64918815	     92.80464981	     45.04835301	      0.00000000	      0.00000000	     -6.59540625	     -8.17389204	     -3.30679614	     32.22233477	     45.27263775	      0.00000000	      0.00000000
     46.64371429	     -3.62181170	     -5.57007810	      8.08320133	      1.07259338	      0.92152811	      0.46669589	     -0.31032602	      3.62648166	    -18.05908522	     11.10979867	     11.10979867	     16.20551487	      2.16621195	     -4.72101871	     28.41983609	     -8.55908081	     -3.01609096	     21.76255550	     21.76255550	      2.49109777	     -8.63899350	      2.67984199	     -8.38112199	      5.27935054	      3.58774930	     35.98975853	    -16.74104722	     -9.11166459	     89.30971815	     45.15026184	      0.00000000	      0.00000000	     -6.42564901	     -8.37998236	     -3.92537707	     32.73519329	     45.39779496	      0.00000000	      0.00000000
     46.65714286	     -3.47955283	     -5.47792183	      7.99822365	      1.07374516	      0.92131003	      0.46427879	     -0.84488280	      3.38606747	    -17.90557119	     11.31624275	     11.31624275	     16.39653063	      2.14344097	     -4.74340219	     28.08376142	     -8.40527605	     -3.00784894	     22.54075218	     22.54075218	      2.69944170	     -9.13263983	      2.50007248	     -8.47581216	      5.12593901	      3.73247945	     34.87957316	    -16.48923858	     -8.88255531	     88.41975576	     45.16690789	      0.00000000	      0.00000000	     -5.76331504	     -8.61570972	     -4.01340237	     33.04373389	     45.42204878	      0.00000000	      0.00000000
     46.67057143	     -3.46064982	     -5.46006118	      7.88714894	      1.07463893	      0.92097425	      0.46157416	     -1.05465484	      3.12277045	    -17.73414980	     11.85543290	     11.85543290	     16.66810401	      2.02810244	     -4.57319143	     28.00088922	     -8.22669023	     -2.62072361	     23.44932478	     23.44932478	      2.99282684	    -10.17635804	      2.55922570	     -8.30564664	      5.01006575	      4.46667865	     34.05422354	    -17.21286087	     -8.89838834	     84.89830330	     45.27851779	      0.00000000	      0.00000000	     -4.86894262	     -8.72623706	     -4.23993884	     33.60374474	     45.47477602	      0.00000000	      0.00000000
     46.68400000	     -3.28402637	     -5.36473327	      7.83643116	      1.07573603	      0.92114406	      0.45868415	     -1.54883876	      2.82374652	    -17.61079424	     12.19574010	     12.19574010	     16.77530290	      1.95522785	     -4.56800680	     27.61040370	     -8.03218813	     -2.45499775	     24.10893820	     24.10893820	      3.45045685	    -10.61279240	      2.38204206	     -8.48945361	      4.87774322	      4.35254361	     32.84910409	    -16.80149061	     -8.62346098	     83.88994260	     45.29661933	      0.00000000	      0.00000000	     -4.20335357	     -8.91948552	     -4.29229138	     33.85695669	     45.49330283	      0.00000000	      0.00000000
